<?xml version="1.0" standalone="no"?>
<!DOCTYPE svg PUBLIC "-//W3C//DTD SVG 20010904//EN"
 "http://www.w3.org/TR/2001/REC-SVG-20010904/DTD/svg10.dtd">
<svg version="1.0" xmlns="http://www.w3.org/2000/svg"
 width="1280.000000pt" height="640.000000pt" viewBox="0 0 1280.000000 640.000000"
 preserveAspectRatio="xMidYMid meet">
<metadata>
Created by potrace 1.15, written by Peter Selinger 2001-2017
</metadata>
<g transform="translate(0.000000,640.000000) scale(0.100000,-0.100000)"
fill="darkgreen" stroke="none">
<path d="M7124 6320 c-34 -14 -39 -28 -44 -144 l-5 -110 -73 65 c-41 35 -84
72 -97 83 -49 39 -115 11 -115 -48 0 -36 56 -96 193 -205 88 -71 85 -62 62
-214 -20 -131 -24 -138 -60 -90 -103 137 -151 166 -200 117 -31 -32 -18 -72
51 -157 36 -45 77 -105 91 -133 l26 -52 -55 -104 c-31 -58 -73 -131 -94 -162
l-38 -57 -21 63 c-26 76 -47 119 -90 178 l-32 45 8 90 c16 179 15 196 -15 222
-33 28 -46 29 -79 3 -26 -20 -29 -32 -42 -133 l-6 -48 -47 39 c-117 97 -155
110 -197 67 -47 -46 -33 -72 98 -170 37 -27 67 -53 67 -56 0 -7 -94 -29 -125
-29 -78 0 -115 -67 -67 -122 21 -25 99 -23 193 3 41 11 83 23 95 26 17 4 27
-5 52 -45 l30 -49 -96 -7 c-109 -8 -135 -22 -135 -76 0 -55 20 -64 151 -70
l117 -5 -1 -80 c0 -61 -6 -97 -27 -152 -48 -127 -58 -240 -55 -590 3 -305 4
-313 25 -334 27 -27 69 -27 96 0 21 21 22 27 19 255 l-4 233 31 22 c16 12 63
37 103 55 97 44 117 84 70 139 -21 24 -60 21 -126 -8 -31 -14 -59 -25 -63 -25
-8 0 4 95 22 163 8 32 27 83 42 112 29 62 39 66 228 106 121 25 146 36 164 73
12 25 11 31 -6 55 -25 33 -71 37 -166 18 -37 -8 -67 -12 -65 -8 2 3 25 44 53
90 l49 84 158 -7 c193 -8 218 0 218 70 0 55 -22 65 -170 71 -114 5 -131 8
-127 22 3 9 19 55 36 102 16 47 38 125 47 174 l18 88 100 89 c56 48 126 105
156 126 48 33 55 43 58 75 2 26 -3 42 -17 56 -39 39 -80 24 -202 -75 -36 -30
-68 -54 -71 -54 -2 0 -2 66 0 148 4 133 2 149 -14 169 -23 26 -52 34 -80 23z"/>
<path d="M2132 6260 c-12 -12 -22 -32 -22 -46 0 -14 24 -80 54 -147 29 -67 63
-144 75 -171 12 -27 19 -51 17 -53 -2 -3 -44 24 -93 60 -137 99 -148 103 -188
62 -32 -31 -32 -65 0 -95 13 -13 109 -84 212 -159 l187 -136 28 -74 c16 -41
26 -76 24 -78 -2 -3 -49 14 -103 38 -54 23 -111 42 -127 42 -55 1 -87 -72 -48
-111 10 -10 96 -51 190 -92 l172 -73 24 -76 c28 -91 38 -131 32 -131 -2 0 -38
42 -80 94 -85 104 -113 120 -155 88 -32 -23 -38 -65 -15 -100 10 -15 78 -100
151 -190 74 -90 138 -174 143 -186 5 -13 12 -79 16 -146 6 -104 5 -122 -7
-114 -8 4 -58 43 -112 86 -97 77 -121 87 -157 68 -23 -12 -39 -59 -30 -86 5
-12 78 -76 163 -143 89 -70 158 -132 161 -144 3 -12 6 -102 6 -201 l0 -178
-81 103 c-92 119 -112 139 -143 139 -30 0 -66 -40 -66 -73 0 -27 26 -63 197
-279 l93 -118 0 -180 c0 -99 -3 -180 -6 -180 -4 0 -73 40 -153 89 -80 49 -153
91 -161 92 -33 7 -68 -11 -80 -42 -11 -27 -11 -33 7 -57 11 -15 97 -74 191
-132 94 -58 176 -110 182 -116 10 -10 5 -165 -16 -510 -6 -95 -5 -103 15 -123
27 -27 72 -27 96 0 24 25 30 81 46 408 l12 254 100 176 c106 188 116 221 76
253 -45 38 -85 20 -131 -59 l-33 -58 -3 96 -3 97 116 232 c63 127 115 240 115
251 0 27 -44 69 -73 69 -33 0 -57 -30 -110 -135 l-46 -90 0 152 -1 153 135
182 c83 112 135 191 135 205 0 28 -42 73 -67 73 -32 0 -59 -27 -140 -137 l-78
-108 -9 111 -9 112 38 78 c72 150 164 352 166 365 7 31 -12 67 -39 78 -53 22
-74 2 -140 -137 l-59 -126 -18 79 c-9 43 -25 103 -35 132 l-18 54 84 219 c46
120 84 232 84 248 0 36 -28 62 -67 62 -42 0 -58 -22 -108 -151 -23 -63 -48
-127 -55 -144 l-12 -30 -33 82 -33 83 39 217 c21 120 39 234 39 254 0 44 -25
69 -68 69 -49 0 -66 -32 -87 -164 -10 -64 -22 -116 -25 -116 -3 0 -42 82 -85
183 -44 100 -89 192 -102 205 -28 27 -62 28 -91 2z"/>
<path d="M10974 5918 c-102 -94 -191 -256 -215 -390 -23 -129 18 -281 117
-429 49 -74 124 -146 161 -155 74 -19 246 221 289 401 41 174 -33 391 -186
548 -81 83 -100 85 -166 25z"/>
<path d="M1005 5379 c-45 -22 -98 -140 -125 -277 l-12 -61 -50 99 c-29 59 -69
120 -98 150 -41 45 -52 51 -81 48 -28 -2 -37 -10 -54 -43 -32 -63 -28 -277 8
-451 64 -310 193 -614 293 -693 36 -28 116 -29 144 -1 87 87 143 348 143 675
0 287 -35 468 -104 537 -30 30 -34 31 -64 17z"/>
<path d="M4023 5316 c-14 -17 -29 -82 -53 -221 -32 -191 -35 -199 -69 -241
-20 -23 -39 -43 -43 -43 -5 -1 -8 55 -8 124 0 112 -2 127 -20 145 -31 31 -75
30 -103 -2 -16 -19 -18 -42 -16 -228 l1 -207 -53 -77 c-60 -87 -65 -85 -69 24
-3 76 -11 100 -42 123 -23 17 -31 18 -56 8 -50 -21 -52 -38 -32 -266 l18 -207
-28 -64 c-16 -35 -31 -64 -34 -64 -2 0 -18 45 -35 100 -24 75 -38 104 -56 116
-32 21 -70 12 -92 -23 -19 -29 -15 -49 61 -299 l33 -111 -37 -93 -37 -93 -6
39 c-4 21 -7 51 -7 65 0 41 -36 79 -74 79 -42 0 -66 -26 -66 -73 0 -19 9 -120
20 -223 19 -177 19 -191 4 -239 -22 -68 -30 -73 -38 -26 -10 65 -74 93 -116
51 -26 -26 -25 -56 5 -239 l26 -150 -45 -143 c-72 -230 -106 -354 -106 -386 0
-55 77 -84 114 -44 9 11 28 59 42 108 48 169 115 379 122 385 4 4 86 22 182
40 188 36 220 51 220 104 0 33 -33 65 -69 65 -15 0 -84 -11 -151 -25 -68 -14
-125 -23 -128 -20 -3 2 16 62 40 132 l45 128 164 102 c168 106 199 131 199
165 0 26 -44 68 -73 68 -12 0 -63 -25 -111 -55 -49 -31 -90 -54 -92 -52 -2 2
20 63 49 137 l53 134 159 53 c87 29 166 60 176 69 23 21 24 62 3 92 -21 30
-61 28 -169 -8 -49 -16 -89 -29 -91 -27 -1 1 18 45 43 97 l44 95 177 105 c195
117 218 140 192 187 -9 15 -28 32 -44 38 -29 10 -25 11 -128 -49 -27 -15 -48
-24 -48 -19 0 4 17 28 38 52 l39 45 119 7 c65 4 138 8 162 8 53 1 82 27 82 76
0 55 -30 69 -140 63 -50 -3 -90 -3 -90 -1 0 8 158 182 323 356 123 130 150
164 150 188 0 39 -29 69 -67 69 -27 0 -47 -17 -147 -120 -64 -66 -118 -120
-121 -120 -3 0 1 30 8 68 19 95 17 129 -6 152 -28 28 -74 26 -97 -4z"/>
<path d="M10473 5095 c-133 -42 -293 -161 -293 -219 0 -24 73 -99 136 -141
117 -78 248 -108 355 -81 160 40 339 171 322 235 -7 28 -92 106 -158 146 -116
69 -257 93 -362 60z"/>
<path d="M11370 5086 c-88 -30 -155 -71 -217 -131 -59 -57 -65 -80 -32 -126
31 -44 142 -118 227 -152 139 -55 280 -37 424 56 76 49 138 114 138 145 0 33
-83 115 -160 159 -131 75 -259 91 -380 49z"/>
<path d="M5919 4908 c-47 -16 -53 -49 -23 -141 36 -112 42 -196 19 -247 -10
-22 -21 -40 -24 -40 -3 0 -39 39 -80 86 -69 80 -76 85 -109 82 -24 -2 -41 -11
-54 -29 -18 -24 -18 -29 -5 -60 8 -19 51 -75 96 -125 95 -108 102 -130 77
-256 -12 -64 -43 -265 -47 -307 0 -3 -22 37 -48 89 -55 107 -55 107 -14 258
23 85 24 94 10 116 -9 13 -28 27 -43 30 -41 11 -75 -20 -98 -88 l-19 -57 -48
47 c-52 52 -53 53 -65 236 -5 76 -10 101 -26 117 -25 27 -72 27 -99 0 -20 -20
-21 -29 -16 -110 4 -65 3 -89 -6 -88 -7 0 -36 12 -66 27 -72 36 -88 68 -103
207 -10 91 -16 114 -34 132 -29 29 -56 29 -90 0 l-27 -24 9 -106 c6 -71 6
-107 -1 -107 -5 0 -30 9 -54 20 -24 11 -54 20 -67 20 -54 0 -85 -79 -46 -118
10 -10 80 -42 155 -72 159 -62 158 -55 2 -112 -44 -16 -88 -37 -97 -45 -22
-20 -23 -61 -2 -91 25 -36 73 -28 249 42 156 63 160 64 187 48 15 -9 28 -19
28 -23 0 -8 -80 -29 -109 -29 -23 0 -61 -44 -61 -72 0 -10 12 -31 26 -45 23
-23 31 -25 78 -19 29 3 72 13 96 21 23 8 51 15 62 15 27 0 75 -38 99 -78 32
-55 22 -62 -81 -62 -77 0 -93 -3 -110 -20 -29 -29 -26 -74 7 -100 26 -20 37
-21 155 -18 69 1 128 1 131 -2 2 -3 19 -36 37 -73 50 -101 109 -140 169 -108
18 10 45 65 55 112 5 24 16 29 118 57 61 17 117 37 124 44 25 25 26 62 4 91
-26 33 -51 34 -144 7 -38 -11 -71 -18 -73 -16 -2 2 -1 22 3 45 5 29 19 54 48
85 42 44 39 43 214 86 76 19 104 71 64 121 -24 29 -65 28 -187 -5 -49 -13 -91
-23 -92 -22 -1 1 7 36 18 77 l21 75 150 36 c83 20 158 44 169 54 25 23 25 75
-1 99 -24 21 -58 22 -131 2 -30 -9 -67 -18 -82 -21 l-28 -7 16 31 c9 17 45 61
80 99 69 72 78 98 49 139 -26 38 -73 30 -133 -24 -34 -31 -52 -41 -55 -32 -3
7 -12 36 -21 64 -23 73 -57 99 -106 82z"/>
<path d="M7380 4912 c-31 -10 -50 -36 -70 -98 l-22 -64 -51 45 c-57 50 -101
59 -130 27 -30 -33 -22 -80 19 -115 39 -34 127 -147 120 -154 -2 -2 -47 7
-100 21 -110 29 -138 24 -155 -26 -11 -32 -4 -55 24 -78 8 -7 82 -29 163 -49
l147 -36 21 -75 c12 -41 21 -76 20 -76 0 -1 -44 9 -96 22 -126 33 -158 33
-182 5 -22 -28 -23 -59 -3 -88 10 -15 37 -26 88 -38 131 -29 163 -43 200 -88
21 -26 36 -58 41 -84 3 -24 5 -43 4 -43 -2 0 -35 9 -73 20 -38 11 -81 20 -96
20 -33 0 -69 -34 -69 -66 0 -44 37 -68 152 -98 l107 -28 12 -51 c15 -64 47
-97 92 -97 49 0 82 31 124 114 19 39 37 73 40 76 2 3 62 3 133 2 127 -4 130
-3 155 22 30 30 32 65 5 94 -18 19 -31 22 -105 22 -116 0 -120 3 -93 51 25 45
78 89 106 89 11 0 39 -7 62 -15 24 -8 66 -18 94 -21 64 -8 99 15 99 65 0 44
-23 63 -94 78 -34 7 -64 15 -68 18 -11 12 44 45 64 38 11 -3 73 -27 137 -54
198 -82 251 -87 272 -26 19 52 -6 76 -126 121 -59 23 -109 44 -113 47 -3 3 54
30 127 59 73 28 143 61 156 73 28 26 28 66 2 95 -26 28 -54 28 -119 1 -28 -12
-53 -20 -55 -18 -3 2 0 44 6 93 5 49 7 100 4 112 -8 32 -50 58 -81 50 -38 -10
-53 -43 -64 -148 -17 -148 -29 -172 -113 -214 l-70 -35 7 91 c7 86 6 93 -16
116 -27 29 -71 32 -98 5 -14 -14 -21 -40 -25 -98 -19 -229 -13 -206 -65 -257
l-48 -47 -22 61 c-26 71 -58 98 -99 84 -14 -5 -33 -21 -41 -35 -13 -23 -12
-35 12 -120 37 -128 35 -150 -17 -254 -37 -74 -46 -85 -50 -64 -18 91 -51 335
-51 386 0 67 -8 55 123 203 49 56 62 77 62 104 0 40 -26 66 -66 66 -24 0 -44
-16 -110 -87 l-82 -88 -17 40 c-22 52 -16 157 14 240 11 32 21 73 21 91 0 42
-43 78 -80 66z"/>
<path d="M11023 4809 c-13 -4 -43 -30 -68 -56 -95 -99 -166 -232 -193 -362
-14 -68 -15 -90 -4 -152 17 -98 54 -189 119 -287 50 -76 138 -162 165 -162 50
0 168 133 229 258 104 214 88 386 -58 609 -49 75 -115 142 -153 155 -8 3 -25
2 -37 -3z"/>
<path d="M1317 4649 c-43 -25 -52 -66 -51 -224 1 -175 28 -326 96 -534 70
-217 177 -413 242 -443 88 -40 131 87 107 317 -39 361 -204 796 -334 875 -37
23 -36 23 -60 9z"/>
<path d="M9952 4550 c-69 -42 -157 -183 -187 -301 -38 -143 21 -320 148 -450
64 -65 84 -64 151 4 87 90 156 245 156 351 0 137 -112 350 -209 401 -25 12
-31 12 -59 -5z"/>
<path d="M12072 4550 c-68 -42 -159 -187 -188 -303 -37 -140 23 -320 149 -448
64 -65 84 -64 150 4 90 93 157 246 157 360 0 55 -36 169 -74 238 -34 60 -101
136 -135 154 -25 12 -31 12 -59 -5z"/>
<path d="M40 4340 c-82 -20 -25 -180 133 -375 87 -108 272 -286 382 -368 158
-118 317 -183 360 -147 26 21 18 89 -19 165 -50 106 -145 226 -290 370 -234
233 -467 379 -566 355z"/>
<path d="M976 3941 c-99 -110 143 -723 392 -992 146 -159 222 -160 222 -4 0
351 -485 1138 -614 996z"/>
<path d="M9566 3879 c-89 -14 -236 -102 -267 -161 -28 -53 126 -172 259 -199
111 -23 242 22 340 116 l54 53 -17 31 c-20 40 -120 114 -188 139 -66 24 -119
30 -181 21z"/>
<path d="M10290 3876 c-115 -24 -260 -124 -260 -179 0 -68 206 -187 323 -187
54 0 138 27 201 64 57 33 126 100 126 121 0 28 -80 102 -148 138 -37 19 -94
40 -126 46 -33 6 -60 11 -60 10 -1 0 -26 -6 -56 -13z"/>
<path d="M11682 3879 c-92 -18 -218 -94 -259 -155 -14 -22 -14 -26 3 -53 42
-65 151 -131 252 -152 111 -23 242 22 340 116 l54 53 -16 31 c-20 37 -104 102
-168 130 -36 15 -159 46 -162 40 -1 -1 -20 -5 -44 -10z"/>
<path d="M12410 3876 c-117 -25 -260 -123 -260 -178 0 -55 149 -156 266 -181
69 -14 156 2 238 46 65 34 146 108 146 132 0 28 -79 102 -148 138 -37 19 -94
40 -126 46 -33 6 -60 11 -60 10 -1 0 -26 -6 -56 -13z"/>
<path d="M1898 3723 c-68 -72 -135 -262 -175 -499 -13 -83 -18 -162 -18 -329
0 -209 2 -224 25 -289 16 -44 34 -76 51 -89 24 -17 29 -18 55 -4 68 35 142
216 191 467 23 120 26 160 27 360 1 186 -2 236 -17 289 -33 119 -83 153 -139
94z"/>
<path d="M6165 3725 c-31 -30 -31 -41 -1 -135 36 -115 41 -171 20 -230 -10
-28 -21 -50 -24 -50 -4 0 -38 36 -76 81 -70 82 -90 99 -119 99 -24 0 -65 -46
-65 -74 0 -25 53 -96 148 -199 l45 -49 -7 -86 c-3 -48 -16 -154 -29 -237 l-23
-149 -49 99 -49 99 17 75 c9 42 22 95 29 118 16 55 3 94 -35 107 -45 16 -78
-9 -102 -77 -11 -31 -22 -57 -25 -57 -3 0 -25 20 -49 44 -39 39 -43 50 -51
112 -5 38 -9 94 -10 125 0 80 -15 115 -53 129 -26 9 -36 7 -57 -8 -23 -18 -25
-26 -28 -116 -1 -53 -5 -96 -8 -96 -2 0 -31 14 -64 30 -82 41 -94 69 -110 237
-6 72 -11 90 -30 105 -28 23 -62 23 -90 0 -19 -16 -23 -27 -22 -78 1 -32 4
-83 8 -111 3 -29 4 -53 1 -53 -3 0 -26 9 -52 20 -74 32 -111 27 -134 -18 -10
-19 -10 -30 -1 -52 13 -32 49 -51 195 -107 50 -19 94 -38 98 -42 5 -5 -40 -28
-100 -51 -59 -23 -114 -48 -122 -55 -23 -22 -18 -75 10 -97 32 -27 69 -20 220
43 184 76 183 75 213 51 32 -24 25 -30 -50 -42 -68 -11 -94 -32 -94 -75 0 -70
66 -85 201 -45 l69 21 34 -27 c34 -27 83 -101 73 -110 -2 -3 -38 -5 -78 -5
-41 -1 -88 -5 -105 -10 -37 -11 -57 -49 -45 -82 18 -47 36 -52 175 -52 l131 0
37 -70 c62 -119 128 -155 183 -101 21 21 45 81 45 113 0 6 8 14 18 17 9 3 60
17 112 31 52 15 103 34 113 42 27 25 22 78 -9 102 -28 22 -34 22 -141 -9 l-63
-18 0 38 c0 21 6 45 13 52 7 7 20 25 30 40 23 37 55 52 162 77 49 12 100 28
112 37 30 19 31 76 2 105 -25 25 -63 22 -191 -15 -57 -17 -78 -20 -78 -11 0
36 42 144 58 149 9 2 76 19 148 36 99 23 137 37 154 55 29 30 23 72 -12 98
l-28 21 -100 -26 c-55 -14 -100 -23 -100 -18 0 14 86 124 118 151 56 48 49
118 -14 133 -28 7 -79 -21 -124 -69 l-23 -24 -22 66 c-34 100 -81 128 -130 78z"/>
<path d="M7088 3731 c-15 -12 -32 -43 -43 -81 -16 -54 -35 -87 -35 -62 0 15
-84 80 -113 87 -20 5 -32 1 -51 -19 -40 -39 -34 -69 25 -128 52 -52 109 -125
109 -139 0 -4 -41 3 -91 17 -50 13 -98 24 -108 24 -28 0 -61 -38 -61 -70 0
-49 27 -65 171 -99 74 -18 142 -34 151 -37 15 -5 31 -45 53 -137 7 -27 7 -27
-21 -17 -35 14 -189 50 -210 50 -22 0 -64 -46 -64 -70 0 -37 41 -66 120 -84
129 -31 158 -45 192 -93 16 -25 32 -62 35 -83 l5 -39 -63 19 c-112 32 -115 32
-145 7 -32 -28 -35 -70 -7 -98 11 -11 63 -31 119 -46 54 -14 104 -30 109 -34
6 -5 17 -31 24 -59 22 -87 89 -115 150 -64 17 14 47 59 67 100 l35 74 133 -3
c119 -2 136 0 155 17 28 25 28 77 0 101 -16 15 -39 20 -111 22 -50 2 -93 5
-95 7 -10 10 39 85 71 110 l36 27 67 -21 c94 -29 161 -29 185 0 43 53 11 106
-75 120 -76 12 -85 19 -56 41 13 10 29 19 34 19 6 0 82 -29 170 -65 88 -36
171 -65 185 -65 41 0 70 26 70 64 0 47 -16 62 -97 91 -40 14 -92 34 -115 45
-36 16 -40 20 -23 26 57 20 177 69 228 91 43 19 59 32 64 52 22 80 -42 113
-136 71 -24 -11 -46 -20 -51 -20 -4 0 -3 21 1 48 4 26 8 75 8 110 1 70 -19
102 -64 102 -50 0 -71 -36 -78 -133 -4 -48 -15 -110 -25 -139 -16 -50 -21 -55
-82 -85 -36 -18 -67 -33 -70 -33 -3 0 -4 41 -2 91 4 96 -2 114 -45 130 -27 10
-68 -6 -79 -30 -4 -9 -12 -78 -19 -154 l-13 -139 -48 -49 -48 -49 -23 62 c-31
88 -72 111 -123 70 -27 -22 -29 -58 -7 -124 8 -23 20 -70 27 -104 l12 -61 -51
-99 c-27 -54 -50 -92 -51 -84 -1 27 -39 284 -47 325 -5 22 -7 63 -5 92 4 48 9
57 84 140 96 106 114 137 99 176 -13 33 -56 53 -86 39 -11 -6 -51 -46 -90 -90
-38 -44 -72 -81 -75 -81 -3 -1 -13 20 -24 45 -23 55 -17 123 19 240 31 98 31
99 0 129 -29 30 -54 32 -87 6z"/>
<path d="M9909 3591 c-87 -89 -159 -248 -159 -351 0 -52 26 -145 62 -217 33
-67 126 -178 158 -188 30 -10 77 24 127 90 140 186 158 342 61 535 -37 73
-143 190 -173 190 -10 0 -45 -27 -76 -59z"/>
<path d="M12045 3609 c-63 -58 -114 -140 -147 -233 -43 -126 -34 -220 34 -356
35 -68 126 -175 159 -185 61 -20 195 155 233 301 29 111 16 201 -46 323 -36
72 -143 191 -171 191 -10 0 -37 -18 -62 -41z"/>
<path d="M10972 3551 c-127 -131 -185 -307 -147 -451 36 -138 158 -310 219
-310 87 0 236 255 236 402 0 110 -68 264 -156 355 -68 69 -89 70 -152 4z"/>
<path d="M576 3341 c-39 -43 10 -168 126 -322 38 -49 68 -91 68 -93 0 -3 -15
0 -32 5 -61 18 -213 39 -278 39 -84 0 -136 -15 -155 -44 -22 -33 -8 -61 56
-121 194 -182 722 -364 1021 -352 97 4 112 15 106 79 -19 195 -450 652 -745
790 -86 41 -142 47 -167 19z"/>
<path d="M10563 2901 c-90 -33 -213 -128 -213 -166 0 -19 53 -75 102 -107 136
-90 258 -101 389 -35 75 37 125 76 153 119 14 21 13 26 -5 55 -25 40 -121 105
-195 132 -69 26 -161 27 -231 2z"/>
<path d="M11309 2906 c-108 -42 -219 -128 -219 -171 0 -32 88 -111 166 -147
92 -43 181 -49 266 -18 107 38 218 124 218 168 0 26 -98 110 -169 144 -54 26
-81 32 -146 35 -51 2 -93 -2 -116 -11z"/>
<path d="M1180 2334 c-77 -33 -129 -111 -137 -203 -4 -47 16 -334 102 -1444
14 -176 71 -305 184 -418 59 -59 95 -85 161 -117 158 -77 163 -77 710 -77 537
0 552 2 689 67 93 44 196 149 244 248 51 104 67 173 77 330 8 124 42 564 90
1160 20 263 17 311 -28 374 -16 23 -48 51 -77 65 l-49 26 -966 2 c-846 2 -969
0 -1000 -13z"/>
<path d="M5677 2335 c-81 -30 -127 -82 -146 -165 -8 -34 1 -188 39 -675 27
-346 54 -695 59 -775 7 -107 16 -166 35 -225 67 -211 211 -348 422 -402 61
-16 123 -18 554 -18 547 0 552 0 710 77 67 32 101 57 160 117 129 130 173 243
190 495 6 83 31 409 55 724 25 315 45 594 45 620 -1 95 -49 179 -124 217 l-50
25 -955 -1 c-791 0 -963 -3 -994 -14z"/>
<path d="M10088 2336 c-97 -26 -162 -96 -174 -187 -3 -24 1 -134 10 -244 55
-696 78 -999 86 -1135 9 -177 27 -264 76 -366 88 -186 231 -287 454 -321 144
-22 947 -14 1040 11 122 32 227 91 311 175 134 134 171 238 193 546 8 110 33
450 57 755 l43 555 -19 59 c-25 78 -75 129 -146 150 -46 14 -168 16 -968 15
-706 0 -927 -3 -963 -13z"/>
</g>
</svg>
